<mxfile host="app.diagrams.net" modified="2022-09-19T16:07:20.990Z" agent="5.0 (Windows NT 10.0; Win64; x64) AppleWebKit/537.36 (KHTML, like Gecko) Chrome/105.0.0.0 Safari/537.36" etag="xUtTF_UGC1mhDzvj8eyQ" version="20.3.3" type="github">
  <diagram id="R2lEEEUBdFMjLlhIrx00" name="Page-1">
    <mxGraphModel dx="2052" dy="637" grid="1" gridSize="10" guides="1" tooltips="1" connect="1" arrows="1" fold="1" page="1" pageScale="1" pageWidth="850" pageHeight="1100" math="0" shadow="0" extFonts="Permanent Marker^https://fonts.googleapis.com/css?family=Permanent+Marker">
      <root>
        <mxCell id="0" />
        <mxCell id="1" parent="0" />
        <mxCell id="C-vyLk0tnHw3VtMMgP7b-2" value="Staff" style="shape=table;startSize=30;container=1;collapsible=1;childLayout=tableLayout;fixedRows=1;rowLines=0;fontStyle=1;align=center;resizeLast=1;" parent="1" vertex="1">
          <mxGeometry x="430" y="115" width="250" height="190" as="geometry" />
        </mxCell>
        <mxCell id="C-vyLk0tnHw3VtMMgP7b-3" value="" style="shape=partialRectangle;collapsible=0;dropTarget=0;pointerEvents=0;fillColor=none;points=[[0,0.5],[1,0.5]];portConstraint=eastwest;top=0;left=0;right=0;bottom=1;" parent="C-vyLk0tnHw3VtMMgP7b-2" vertex="1">
          <mxGeometry y="30" width="250" height="30" as="geometry" />
        </mxCell>
        <mxCell id="C-vyLk0tnHw3VtMMgP7b-4" value="PK" style="shape=partialRectangle;overflow=hidden;connectable=0;fillColor=none;top=0;left=0;bottom=0;right=0;fontStyle=1;" parent="C-vyLk0tnHw3VtMMgP7b-3" vertex="1">
          <mxGeometry width="30" height="30" as="geometry">
            <mxRectangle width="30" height="30" as="alternateBounds" />
          </mxGeometry>
        </mxCell>
        <mxCell id="C-vyLk0tnHw3VtMMgP7b-5" value="Employee code    varchar(8)" style="shape=partialRectangle;overflow=hidden;connectable=0;fillColor=none;top=0;left=0;bottom=0;right=0;align=left;spacingLeft=6;fontStyle=5;" parent="C-vyLk0tnHw3VtMMgP7b-3" vertex="1">
          <mxGeometry x="30" width="220" height="30" as="geometry">
            <mxRectangle width="220" height="30" as="alternateBounds" />
          </mxGeometry>
        </mxCell>
        <mxCell id="C-vyLk0tnHw3VtMMgP7b-6" value="" style="shape=partialRectangle;collapsible=0;dropTarget=0;pointerEvents=0;fillColor=none;points=[[0,0.5],[1,0.5]];portConstraint=eastwest;top=0;left=0;right=0;bottom=0;" parent="C-vyLk0tnHw3VtMMgP7b-2" vertex="1">
          <mxGeometry y="60" width="250" height="30" as="geometry" />
        </mxCell>
        <mxCell id="C-vyLk0tnHw3VtMMgP7b-7" value="FK1" style="shape=partialRectangle;overflow=hidden;connectable=0;fillColor=none;top=0;left=0;bottom=0;right=0;" parent="C-vyLk0tnHw3VtMMgP7b-6" vertex="1">
          <mxGeometry width="30" height="30" as="geometry">
            <mxRectangle width="30" height="30" as="alternateBounds" />
          </mxGeometry>
        </mxCell>
        <mxCell id="C-vyLk0tnHw3VtMMgP7b-8" value="Name  nvarchar(30)" style="shape=partialRectangle;overflow=hidden;connectable=0;fillColor=none;top=0;left=0;bottom=0;right=0;align=left;spacingLeft=6;" parent="C-vyLk0tnHw3VtMMgP7b-6" vertex="1">
          <mxGeometry x="30" width="220" height="30" as="geometry">
            <mxRectangle width="220" height="30" as="alternateBounds" />
          </mxGeometry>
        </mxCell>
        <mxCell id="C-vyLk0tnHw3VtMMgP7b-9" value="" style="shape=partialRectangle;collapsible=0;dropTarget=0;pointerEvents=0;fillColor=none;points=[[0,0.5],[1,0.5]];portConstraint=eastwest;top=0;left=0;right=0;bottom=0;" parent="C-vyLk0tnHw3VtMMgP7b-2" vertex="1">
          <mxGeometry y="90" width="250" height="30" as="geometry" />
        </mxCell>
        <mxCell id="C-vyLk0tnHw3VtMMgP7b-10" value="" style="shape=partialRectangle;overflow=hidden;connectable=0;fillColor=none;top=0;left=0;bottom=0;right=0;" parent="C-vyLk0tnHw3VtMMgP7b-9" vertex="1">
          <mxGeometry width="30" height="30" as="geometry">
            <mxRectangle width="30" height="30" as="alternateBounds" />
          </mxGeometry>
        </mxCell>
        <mxCell id="C-vyLk0tnHw3VtMMgP7b-11" value="Birth          date" style="shape=partialRectangle;overflow=hidden;connectable=0;fillColor=none;top=0;left=0;bottom=0;right=0;align=left;spacingLeft=6;" parent="C-vyLk0tnHw3VtMMgP7b-9" vertex="1">
          <mxGeometry x="30" width="220" height="30" as="geometry">
            <mxRectangle width="220" height="30" as="alternateBounds" />
          </mxGeometry>
        </mxCell>
        <mxCell id="VVJBVP3TvkQfD2h86G9u-92" value="" style="shape=partialRectangle;collapsible=0;dropTarget=0;pointerEvents=0;fillColor=none;points=[[0,0.5],[1,0.5]];portConstraint=eastwest;top=0;left=0;right=0;bottom=0;" vertex="1" parent="C-vyLk0tnHw3VtMMgP7b-2">
          <mxGeometry y="120" width="250" height="30" as="geometry" />
        </mxCell>
        <mxCell id="VVJBVP3TvkQfD2h86G9u-93" value="" style="shape=partialRectangle;overflow=hidden;connectable=0;fillColor=none;top=0;left=0;bottom=0;right=0;" vertex="1" parent="VVJBVP3TvkQfD2h86G9u-92">
          <mxGeometry width="30" height="30" as="geometry">
            <mxRectangle width="30" height="30" as="alternateBounds" />
          </mxGeometry>
        </mxCell>
        <mxCell id="VVJBVP3TvkQfD2h86G9u-94" value="Address     nvarchar(30)" style="shape=partialRectangle;overflow=hidden;connectable=0;fillColor=none;top=0;left=0;bottom=0;right=0;align=left;spacingLeft=6;" vertex="1" parent="VVJBVP3TvkQfD2h86G9u-92">
          <mxGeometry x="30" width="220" height="30" as="geometry">
            <mxRectangle width="220" height="30" as="alternateBounds" />
          </mxGeometry>
        </mxCell>
        <mxCell id="VVJBVP3TvkQfD2h86G9u-95" value="" style="shape=partialRectangle;collapsible=0;dropTarget=0;pointerEvents=0;fillColor=none;points=[[0,0.5],[1,0.5]];portConstraint=eastwest;top=0;left=0;right=0;bottom=0;" vertex="1" parent="C-vyLk0tnHw3VtMMgP7b-2">
          <mxGeometry y="150" width="250" height="30" as="geometry" />
        </mxCell>
        <mxCell id="VVJBVP3TvkQfD2h86G9u-96" value="" style="shape=partialRectangle;overflow=hidden;connectable=0;fillColor=none;top=0;left=0;bottom=0;right=0;" vertex="1" parent="VVJBVP3TvkQfD2h86G9u-95">
          <mxGeometry width="30" height="30" as="geometry">
            <mxRectangle width="30" height="30" as="alternateBounds" />
          </mxGeometry>
        </mxCell>
        <mxCell id="VVJBVP3TvkQfD2h86G9u-97" value="PhoneNumber   varchar(13)" style="shape=partialRectangle;overflow=hidden;connectable=0;fillColor=none;top=0;left=0;bottom=0;right=0;align=left;spacingLeft=6;" vertex="1" parent="VVJBVP3TvkQfD2h86G9u-95">
          <mxGeometry x="30" width="220" height="30" as="geometry">
            <mxRectangle width="220" height="30" as="alternateBounds" />
          </mxGeometry>
        </mxCell>
        <mxCell id="C-vyLk0tnHw3VtMMgP7b-13" value="Shipments" style="shape=table;startSize=30;container=1;collapsible=1;childLayout=tableLayout;fixedRows=1;rowLines=0;fontStyle=1;align=center;resizeLast=1;" parent="1" vertex="1">
          <mxGeometry x="960" y="240" width="250" height="130" as="geometry" />
        </mxCell>
        <mxCell id="C-vyLk0tnHw3VtMMgP7b-14" value="" style="shape=partialRectangle;collapsible=0;dropTarget=0;pointerEvents=0;fillColor=none;points=[[0,0.5],[1,0.5]];portConstraint=eastwest;top=0;left=0;right=0;bottom=1;" parent="C-vyLk0tnHw3VtMMgP7b-13" vertex="1">
          <mxGeometry y="30" width="250" height="30" as="geometry" />
        </mxCell>
        <mxCell id="C-vyLk0tnHw3VtMMgP7b-15" value="PK" style="shape=partialRectangle;overflow=hidden;connectable=0;fillColor=none;top=0;left=0;bottom=0;right=0;fontStyle=1;" parent="C-vyLk0tnHw3VtMMgP7b-14" vertex="1">
          <mxGeometry width="30" height="30" as="geometry">
            <mxRectangle width="30" height="30" as="alternateBounds" />
          </mxGeometry>
        </mxCell>
        <mxCell id="C-vyLk0tnHw3VtMMgP7b-16" value="shipment_id int NOT NULL " style="shape=partialRectangle;overflow=hidden;connectable=0;fillColor=none;top=0;left=0;bottom=0;right=0;align=left;spacingLeft=6;fontStyle=5;" parent="C-vyLk0tnHw3VtMMgP7b-14" vertex="1">
          <mxGeometry x="30" width="220" height="30" as="geometry">
            <mxRectangle width="220" height="30" as="alternateBounds" />
          </mxGeometry>
        </mxCell>
        <mxCell id="C-vyLk0tnHw3VtMMgP7b-17" value="" style="shape=partialRectangle;collapsible=0;dropTarget=0;pointerEvents=0;fillColor=none;points=[[0,0.5],[1,0.5]];portConstraint=eastwest;top=0;left=0;right=0;bottom=0;" parent="C-vyLk0tnHw3VtMMgP7b-13" vertex="1">
          <mxGeometry y="60" width="250" height="30" as="geometry" />
        </mxCell>
        <mxCell id="C-vyLk0tnHw3VtMMgP7b-18" value="FK1" style="shape=partialRectangle;overflow=hidden;connectable=0;fillColor=none;top=0;left=0;bottom=0;right=0;" parent="C-vyLk0tnHw3VtMMgP7b-17" vertex="1">
          <mxGeometry width="30" height="30" as="geometry">
            <mxRectangle width="30" height="30" as="alternateBounds" />
          </mxGeometry>
        </mxCell>
        <mxCell id="C-vyLk0tnHw3VtMMgP7b-19" value="order_id int NOT NULL" style="shape=partialRectangle;overflow=hidden;connectable=0;fillColor=none;top=0;left=0;bottom=0;right=0;align=left;spacingLeft=6;" parent="C-vyLk0tnHw3VtMMgP7b-17" vertex="1">
          <mxGeometry x="30" width="220" height="30" as="geometry">
            <mxRectangle width="220" height="30" as="alternateBounds" />
          </mxGeometry>
        </mxCell>
        <mxCell id="C-vyLk0tnHw3VtMMgP7b-20" value="" style="shape=partialRectangle;collapsible=0;dropTarget=0;pointerEvents=0;fillColor=none;points=[[0,0.5],[1,0.5]];portConstraint=eastwest;top=0;left=0;right=0;bottom=0;" parent="C-vyLk0tnHw3VtMMgP7b-13" vertex="1">
          <mxGeometry y="90" width="250" height="30" as="geometry" />
        </mxCell>
        <mxCell id="C-vyLk0tnHw3VtMMgP7b-21" value="" style="shape=partialRectangle;overflow=hidden;connectable=0;fillColor=none;top=0;left=0;bottom=0;right=0;" parent="C-vyLk0tnHw3VtMMgP7b-20" vertex="1">
          <mxGeometry width="30" height="30" as="geometry">
            <mxRectangle width="30" height="30" as="alternateBounds" />
          </mxGeometry>
        </mxCell>
        <mxCell id="C-vyLk0tnHw3VtMMgP7b-22" value="shipment_date date NOT NULL" style="shape=partialRectangle;overflow=hidden;connectable=0;fillColor=none;top=0;left=0;bottom=0;right=0;align=left;spacingLeft=6;" parent="C-vyLk0tnHw3VtMMgP7b-20" vertex="1">
          <mxGeometry x="30" width="220" height="30" as="geometry">
            <mxRectangle width="220" height="30" as="alternateBounds" />
          </mxGeometry>
        </mxCell>
        <mxCell id="C-vyLk0tnHw3VtMMgP7b-23" value="Manager" style="shape=table;startSize=30;container=1;collapsible=1;childLayout=tableLayout;fixedRows=1;rowLines=0;fontStyle=1;align=center;resizeLast=1;" parent="1" vertex="1">
          <mxGeometry x="122" y="120" width="250" height="120" as="geometry" />
        </mxCell>
        <mxCell id="C-vyLk0tnHw3VtMMgP7b-24" value="" style="shape=partialRectangle;collapsible=0;dropTarget=0;pointerEvents=0;fillColor=none;points=[[0,0.5],[1,0.5]];portConstraint=eastwest;top=0;left=0;right=0;bottom=1;" parent="C-vyLk0tnHw3VtMMgP7b-23" vertex="1">
          <mxGeometry y="30" width="250" height="30" as="geometry" />
        </mxCell>
        <mxCell id="C-vyLk0tnHw3VtMMgP7b-25" value="PK" style="shape=partialRectangle;overflow=hidden;connectable=0;fillColor=none;top=0;left=0;bottom=0;right=0;fontStyle=1;" parent="C-vyLk0tnHw3VtMMgP7b-24" vertex="1">
          <mxGeometry width="30" height="30" as="geometry">
            <mxRectangle width="30" height="30" as="alternateBounds" />
          </mxGeometry>
        </mxCell>
        <mxCell id="C-vyLk0tnHw3VtMMgP7b-26" value="Management code  varchar(8) " style="shape=partialRectangle;overflow=hidden;connectable=0;fillColor=none;top=0;left=0;bottom=0;right=0;align=left;spacingLeft=6;fontStyle=5;" parent="C-vyLk0tnHw3VtMMgP7b-24" vertex="1">
          <mxGeometry x="30" width="220" height="30" as="geometry">
            <mxRectangle width="220" height="30" as="alternateBounds" />
          </mxGeometry>
        </mxCell>
        <mxCell id="C-vyLk0tnHw3VtMMgP7b-27" value="" style="shape=partialRectangle;collapsible=0;dropTarget=0;pointerEvents=0;fillColor=none;points=[[0,0.5],[1,0.5]];portConstraint=eastwest;top=0;left=0;right=0;bottom=0;" parent="C-vyLk0tnHw3VtMMgP7b-23" vertex="1">
          <mxGeometry y="60" width="250" height="30" as="geometry" />
        </mxCell>
        <mxCell id="C-vyLk0tnHw3VtMMgP7b-28" value="" style="shape=partialRectangle;overflow=hidden;connectable=0;fillColor=none;top=0;left=0;bottom=0;right=0;" parent="C-vyLk0tnHw3VtMMgP7b-27" vertex="1">
          <mxGeometry width="30" height="30" as="geometry">
            <mxRectangle width="30" height="30" as="alternateBounds" />
          </mxGeometry>
        </mxCell>
        <mxCell id="C-vyLk0tnHw3VtMMgP7b-29" value="Name                 nvarchar(30)" style="shape=partialRectangle;overflow=hidden;connectable=0;fillColor=none;top=0;left=0;bottom=0;right=0;align=left;spacingLeft=6;" parent="C-vyLk0tnHw3VtMMgP7b-27" vertex="1">
          <mxGeometry x="30" width="220" height="30" as="geometry">
            <mxRectangle width="220" height="30" as="alternateBounds" />
          </mxGeometry>
        </mxCell>
        <mxCell id="VVJBVP3TvkQfD2h86G9u-8" value="" style="shape=partialRectangle;collapsible=0;dropTarget=0;pointerEvents=0;fillColor=none;points=[[0,0.5],[1,0.5]];portConstraint=eastwest;top=0;left=0;right=0;bottom=0;" vertex="1" parent="C-vyLk0tnHw3VtMMgP7b-23">
          <mxGeometry y="90" width="250" height="30" as="geometry" />
        </mxCell>
        <mxCell id="VVJBVP3TvkQfD2h86G9u-9" value="" style="shape=partialRectangle;overflow=hidden;connectable=0;fillColor=none;top=0;left=0;bottom=0;right=0;" vertex="1" parent="VVJBVP3TvkQfD2h86G9u-8">
          <mxGeometry width="30" height="30" as="geometry">
            <mxRectangle width="30" height="30" as="alternateBounds" />
          </mxGeometry>
        </mxCell>
        <mxCell id="VVJBVP3TvkQfD2h86G9u-10" value="PhoneNumber   varchar(13)" style="shape=partialRectangle;overflow=hidden;connectable=0;fillColor=none;top=0;left=0;bottom=0;right=0;align=left;spacingLeft=6;" vertex="1" parent="VVJBVP3TvkQfD2h86G9u-8">
          <mxGeometry x="30" width="220" height="30" as="geometry">
            <mxRectangle width="220" height="30" as="alternateBounds" />
          </mxGeometry>
        </mxCell>
        <mxCell id="VVJBVP3TvkQfD2h86G9u-26" value="" style="edgeStyle=orthogonalEdgeStyle;rounded=0;orthogonalLoop=1;jettySize=auto;html=1;" edge="1" parent="1" source="VVJBVP3TvkQfD2h86G9u-14" target="VVJBVP3TvkQfD2h86G9u-19">
          <mxGeometry relative="1" as="geometry" />
        </mxCell>
        <mxCell id="VVJBVP3TvkQfD2h86G9u-36" style="edgeStyle=orthogonalEdgeStyle;rounded=0;orthogonalLoop=1;jettySize=auto;html=1;entryX=0;entryY=0.5;entryDx=0;entryDy=0;" edge="1" parent="1" source="VVJBVP3TvkQfD2h86G9u-14" target="VVJBVP3TvkQfD2h86G9u-35">
          <mxGeometry relative="1" as="geometry" />
        </mxCell>
        <mxCell id="VVJBVP3TvkQfD2h86G9u-14" value="&lt;font style=&quot;font-size: 24px;&quot;&gt;&lt;b&gt;Quản lý&lt;/b&gt;&lt;/font&gt;" style="rounded=0;whiteSpace=wrap;html=1;" vertex="1" parent="1">
          <mxGeometry x="350" y="660" width="140" height="80" as="geometry" />
        </mxCell>
        <mxCell id="VVJBVP3TvkQfD2h86G9u-28" value="" style="edgeStyle=orthogonalEdgeStyle;rounded=0;orthogonalLoop=1;jettySize=auto;html=1;" edge="1" parent="1" source="VVJBVP3TvkQfD2h86G9u-15" target="VVJBVP3TvkQfD2h86G9u-21">
          <mxGeometry relative="1" as="geometry" />
        </mxCell>
        <mxCell id="VVJBVP3TvkQfD2h86G9u-15" value="&lt;b&gt;&lt;font style=&quot;font-size: 24px;&quot;&gt;Nhân viên&lt;/font&gt;&lt;/b&gt;" style="rounded=0;whiteSpace=wrap;html=1;" vertex="1" parent="1">
          <mxGeometry x="330" y="970" width="155" height="80" as="geometry" />
        </mxCell>
        <mxCell id="VVJBVP3TvkQfD2h86G9u-17" value="&lt;span style=&quot;font-size: 24px;&quot;&gt;&lt;b&gt;Dịch vụ&lt;/b&gt;&lt;/span&gt;" style="rounded=0;whiteSpace=wrap;html=1;" vertex="1" parent="1">
          <mxGeometry x="580" y="790" width="170" height="80" as="geometry" />
        </mxCell>
        <mxCell id="VVJBVP3TvkQfD2h86G9u-32" style="edgeStyle=orthogonalEdgeStyle;rounded=0;orthogonalLoop=1;jettySize=auto;html=1;entryX=0.5;entryY=0;entryDx=0;entryDy=0;" edge="1" parent="1" source="VVJBVP3TvkQfD2h86G9u-18" target="VVJBVP3TvkQfD2h86G9u-20">
          <mxGeometry relative="1" as="geometry" />
        </mxCell>
        <mxCell id="VVJBVP3TvkQfD2h86G9u-33" style="edgeStyle=orthogonalEdgeStyle;rounded=0;orthogonalLoop=1;jettySize=auto;html=1;entryX=0;entryY=0.5;entryDx=0;entryDy=0;" edge="1" parent="1" source="VVJBVP3TvkQfD2h86G9u-18" target="VVJBVP3TvkQfD2h86G9u-22">
          <mxGeometry relative="1" as="geometry" />
        </mxCell>
        <mxCell id="VVJBVP3TvkQfD2h86G9u-18" value="&lt;font style=&quot;font-size: 24px;&quot;&gt;&lt;b&gt;Khách&lt;/b&gt;&lt;/font&gt;" style="rounded=0;whiteSpace=wrap;html=1;" vertex="1" parent="1">
          <mxGeometry x="85" y="810" width="150" height="90" as="geometry" />
        </mxCell>
        <mxCell id="VVJBVP3TvkQfD2h86G9u-27" value="" style="edgeStyle=orthogonalEdgeStyle;rounded=0;orthogonalLoop=1;jettySize=auto;html=1;" edge="1" parent="1" source="VVJBVP3TvkQfD2h86G9u-19" target="VVJBVP3TvkQfD2h86G9u-15">
          <mxGeometry relative="1" as="geometry" />
        </mxCell>
        <mxCell id="VVJBVP3TvkQfD2h86G9u-19" value="Điều hành" style="rhombus;whiteSpace=wrap;html=1;" vertex="1" parent="1">
          <mxGeometry x="370" y="810" width="110" height="80" as="geometry" />
        </mxCell>
        <mxCell id="VVJBVP3TvkQfD2h86G9u-31" style="edgeStyle=orthogonalEdgeStyle;rounded=0;orthogonalLoop=1;jettySize=auto;html=1;entryX=0;entryY=0.5;entryDx=0;entryDy=0;" edge="1" parent="1" source="VVJBVP3TvkQfD2h86G9u-20" target="VVJBVP3TvkQfD2h86G9u-15">
          <mxGeometry relative="1" as="geometry" />
        </mxCell>
        <mxCell id="VVJBVP3TvkQfD2h86G9u-20" value="Đăng kí" style="rhombus;whiteSpace=wrap;html=1;" vertex="1" parent="1">
          <mxGeometry x="102.5" y="970" width="115" height="80" as="geometry" />
        </mxCell>
        <mxCell id="VVJBVP3TvkQfD2h86G9u-29" value="" style="edgeStyle=orthogonalEdgeStyle;rounded=0;orthogonalLoop=1;jettySize=auto;html=1;" edge="1" parent="1" source="VVJBVP3TvkQfD2h86G9u-21" target="VVJBVP3TvkQfD2h86G9u-17">
          <mxGeometry relative="1" as="geometry" />
        </mxCell>
        <mxCell id="VVJBVP3TvkQfD2h86G9u-21" value="Làm" style="rhombus;whiteSpace=wrap;html=1;" vertex="1" parent="1">
          <mxGeometry x="610" y="970" width="110" height="80" as="geometry" />
        </mxCell>
        <mxCell id="VVJBVP3TvkQfD2h86G9u-34" style="edgeStyle=orthogonalEdgeStyle;rounded=0;orthogonalLoop=1;jettySize=auto;html=1;entryX=0;entryY=0.5;entryDx=0;entryDy=0;" edge="1" parent="1" source="VVJBVP3TvkQfD2h86G9u-22" target="VVJBVP3TvkQfD2h86G9u-14">
          <mxGeometry relative="1" as="geometry" />
        </mxCell>
        <mxCell id="VVJBVP3TvkQfD2h86G9u-22" value="Đóng góp" style="rhombus;whiteSpace=wrap;html=1;" vertex="1" parent="1">
          <mxGeometry x="180" y="660" width="110" height="80" as="geometry" />
        </mxCell>
        <mxCell id="VVJBVP3TvkQfD2h86G9u-37" style="edgeStyle=orthogonalEdgeStyle;rounded=0;orthogonalLoop=1;jettySize=auto;html=1;entryX=0.5;entryY=0;entryDx=0;entryDy=0;" edge="1" parent="1" source="VVJBVP3TvkQfD2h86G9u-35" target="VVJBVP3TvkQfD2h86G9u-17">
          <mxGeometry relative="1" as="geometry" />
        </mxCell>
        <mxCell id="VVJBVP3TvkQfD2h86G9u-35" value="Xếp lịch" style="rhombus;whiteSpace=wrap;html=1;" vertex="1" parent="1">
          <mxGeometry x="610" y="660" width="110" height="80" as="geometry" />
        </mxCell>
        <mxCell id="VVJBVP3TvkQfD2h86G9u-38" value="(1,1)" style="text;html=1;strokeColor=none;fillColor=none;align=center;verticalAlign=middle;whiteSpace=wrap;rounded=0;" vertex="1" parent="1">
          <mxGeometry x="410" y="740" width="60" height="30" as="geometry" />
        </mxCell>
        <mxCell id="VVJBVP3TvkQfD2h86G9u-39" value="(1,n)" style="text;html=1;strokeColor=none;fillColor=none;align=center;verticalAlign=middle;whiteSpace=wrap;rounded=0;" vertex="1" parent="1">
          <mxGeometry x="420" y="940" width="60" height="30" as="geometry" />
        </mxCell>
        <mxCell id="VVJBVP3TvkQfD2h86G9u-40" value="(1,1)" style="text;html=1;strokeColor=none;fillColor=none;align=center;verticalAlign=middle;whiteSpace=wrap;rounded=0;" vertex="1" parent="1">
          <mxGeometry x="150" y="870" width="60" height="30" as="geometry" />
        </mxCell>
        <mxCell id="VVJBVP3TvkQfD2h86G9u-41" value="(1,1)" style="text;html=1;strokeColor=none;fillColor=none;align=center;verticalAlign=middle;whiteSpace=wrap;rounded=0;" vertex="1" parent="1">
          <mxGeometry x="275" y="980" width="60" height="30" as="geometry" />
        </mxCell>
        <mxCell id="VVJBVP3TvkQfD2h86G9u-42" value="(0, n)" style="text;html=1;strokeColor=none;fillColor=none;align=center;verticalAlign=middle;whiteSpace=wrap;rounded=0;" vertex="1" parent="1">
          <mxGeometry x="150" y="780" width="60" height="30" as="geometry" />
        </mxCell>
        <mxCell id="VVJBVP3TvkQfD2h86G9u-43" value="(1,1)" style="text;html=1;strokeColor=none;fillColor=none;align=center;verticalAlign=middle;whiteSpace=wrap;rounded=0;" vertex="1" parent="1">
          <mxGeometry x="300" y="670" width="60" height="30" as="geometry" />
        </mxCell>
        <mxCell id="VVJBVP3TvkQfD2h86G9u-44" value="(0, n)" style="text;html=1;strokeColor=none;fillColor=none;align=center;verticalAlign=middle;whiteSpace=wrap;rounded=0;" vertex="1" parent="1">
          <mxGeometry x="480" y="670" width="60" height="30" as="geometry" />
        </mxCell>
        <mxCell id="VVJBVP3TvkQfD2h86G9u-45" value="(n, n)" style="text;html=1;strokeColor=none;fillColor=none;align=center;verticalAlign=middle;whiteSpace=wrap;rounded=0;" vertex="1" parent="1">
          <mxGeometry x="660" y="760" width="60" height="30" as="geometry" />
        </mxCell>
        <mxCell id="VVJBVP3TvkQfD2h86G9u-46" value="(1, n)" style="text;html=1;strokeColor=none;fillColor=none;align=center;verticalAlign=middle;whiteSpace=wrap;rounded=0;" vertex="1" parent="1">
          <mxGeometry x="480" y="970" width="60" height="30" as="geometry" />
        </mxCell>
        <mxCell id="VVJBVP3TvkQfD2h86G9u-47" value="(1, n)" style="text;html=1;strokeColor=none;fillColor=none;align=center;verticalAlign=middle;whiteSpace=wrap;rounded=0;" vertex="1" parent="1">
          <mxGeometry x="610" y="870" width="60" height="30" as="geometry" />
        </mxCell>
        <mxCell id="VVJBVP3TvkQfD2h86G9u-48" value="&lt;b&gt;&lt;u&gt;Căn cước&lt;/u&gt;&lt;/b&gt;" style="ellipse;whiteSpace=wrap;html=1;" vertex="1" parent="1">
          <mxGeometry x="-100" y="720" width="90" height="40" as="geometry" />
        </mxCell>
        <mxCell id="VVJBVP3TvkQfD2h86G9u-49" value="Tên" style="ellipse;whiteSpace=wrap;html=1;" vertex="1" parent="1">
          <mxGeometry x="-100" y="800" width="90" height="40" as="geometry" />
        </mxCell>
        <mxCell id="VVJBVP3TvkQfD2h86G9u-50" value="Ngày sinh" style="ellipse;whiteSpace=wrap;html=1;" vertex="1" parent="1">
          <mxGeometry x="-100" y="880" width="90" height="40" as="geometry" />
        </mxCell>
        <mxCell id="VVJBVP3TvkQfD2h86G9u-59" value="" style="endArrow=none;html=1;rounded=0;strokeColor=default;fontSize=24;elbow=vertical;exitX=1;exitY=1;exitDx=0;exitDy=0;entryX=0;entryY=0.5;entryDx=0;entryDy=0;" edge="1" parent="1" source="VVJBVP3TvkQfD2h86G9u-48" target="VVJBVP3TvkQfD2h86G9u-18">
          <mxGeometry relative="1" as="geometry">
            <mxPoint x="110" y="820" as="sourcePoint" />
            <mxPoint x="270" y="820" as="targetPoint" />
            <Array as="points" />
          </mxGeometry>
        </mxCell>
        <mxCell id="VVJBVP3TvkQfD2h86G9u-60" value="" style="endArrow=none;html=1;rounded=0;strokeColor=default;fontSize=24;elbow=vertical;exitX=1;exitY=0.5;exitDx=0;exitDy=0;entryX=0;entryY=0.5;entryDx=0;entryDy=0;" edge="1" parent="1" source="VVJBVP3TvkQfD2h86G9u-49" target="VVJBVP3TvkQfD2h86G9u-18">
          <mxGeometry relative="1" as="geometry">
            <mxPoint x="110" y="820" as="sourcePoint" />
            <mxPoint x="270" y="820" as="targetPoint" />
          </mxGeometry>
        </mxCell>
        <mxCell id="VVJBVP3TvkQfD2h86G9u-61" value="" style="endArrow=none;html=1;rounded=0;strokeColor=default;fontSize=24;elbow=vertical;entryX=0;entryY=0.5;entryDx=0;entryDy=0;exitX=1;exitY=0.5;exitDx=0;exitDy=0;" edge="1" parent="1" source="VVJBVP3TvkQfD2h86G9u-50" target="VVJBVP3TvkQfD2h86G9u-18">
          <mxGeometry relative="1" as="geometry">
            <mxPoint x="-10" y="900" as="sourcePoint" />
            <mxPoint x="85" y="935" as="targetPoint" />
          </mxGeometry>
        </mxCell>
        <mxCell id="VVJBVP3TvkQfD2h86G9u-62" value="&lt;b&gt;&lt;u&gt;Mã quản lí&lt;/u&gt;&lt;/b&gt;" style="ellipse;whiteSpace=wrap;html=1;" vertex="1" parent="1">
          <mxGeometry x="240" y="560" width="90" height="30" as="geometry" />
        </mxCell>
        <mxCell id="VVJBVP3TvkQfD2h86G9u-63" value="" style="endArrow=none;html=1;rounded=0;strokeColor=default;fontSize=24;elbow=vertical;exitX=1;exitY=1;exitDx=0;exitDy=0;entryX=0.5;entryY=0;entryDx=0;entryDy=0;" edge="1" parent="1" source="VVJBVP3TvkQfD2h86G9u-62" target="VVJBVP3TvkQfD2h86G9u-14">
          <mxGeometry relative="1" as="geometry">
            <mxPoint x="450" y="690" as="sourcePoint" />
            <mxPoint x="425" y="725" as="targetPoint" />
            <Array as="points" />
          </mxGeometry>
        </mxCell>
        <mxCell id="VVJBVP3TvkQfD2h86G9u-64" value="Tên" style="ellipse;whiteSpace=wrap;html=1;" vertex="1" parent="1">
          <mxGeometry x="390" y="550" width="90" height="40" as="geometry" />
        </mxCell>
        <mxCell id="VVJBVP3TvkQfD2h86G9u-65" value="SĐT" style="ellipse;whiteSpace=wrap;html=1;" vertex="1" parent="1">
          <mxGeometry x="-100" y="940" width="90" height="40" as="geometry" />
        </mxCell>
        <mxCell id="VVJBVP3TvkQfD2h86G9u-66" value="" style="endArrow=none;html=1;rounded=0;strokeColor=default;fontSize=24;elbow=vertical;entryX=0;entryY=0.5;entryDx=0;entryDy=0;exitX=1;exitY=0.5;exitDx=0;exitDy=0;" edge="1" parent="1" source="VVJBVP3TvkQfD2h86G9u-65" target="VVJBVP3TvkQfD2h86G9u-18">
          <mxGeometry relative="1" as="geometry">
            <mxPoint y="910" as="sourcePoint" />
            <mxPoint x="95" y="865" as="targetPoint" />
          </mxGeometry>
        </mxCell>
        <mxCell id="VVJBVP3TvkQfD2h86G9u-67" value="" style="endArrow=none;html=1;rounded=0;strokeColor=default;fontSize=24;elbow=vertical;exitX=0.5;exitY=1;exitDx=0;exitDy=0;" edge="1" parent="1" source="VVJBVP3TvkQfD2h86G9u-64">
          <mxGeometry relative="1" as="geometry">
            <mxPoint x="326.81980515339455" y="595.6066017177982" as="sourcePoint" />
            <mxPoint x="420" y="660" as="targetPoint" />
            <Array as="points" />
          </mxGeometry>
        </mxCell>
        <mxCell id="VVJBVP3TvkQfD2h86G9u-68" value="SĐT" style="ellipse;whiteSpace=wrap;html=1;" vertex="1" parent="1">
          <mxGeometry x="500" y="560" width="90" height="40" as="geometry" />
        </mxCell>
        <mxCell id="VVJBVP3TvkQfD2h86G9u-69" value="" style="endArrow=none;html=1;rounded=0;strokeColor=default;fontSize=24;elbow=vertical;exitX=0.5;exitY=1;exitDx=0;exitDy=0;entryX=0.5;entryY=0;entryDx=0;entryDy=0;" edge="1" parent="1" source="VVJBVP3TvkQfD2h86G9u-68" target="VVJBVP3TvkQfD2h86G9u-14">
          <mxGeometry relative="1" as="geometry">
            <mxPoint x="436.81980515339455" y="605.6066017177982" as="sourcePoint" />
            <mxPoint x="530" y="670" as="targetPoint" />
            <Array as="points" />
          </mxGeometry>
        </mxCell>
        <mxCell id="VVJBVP3TvkQfD2h86G9u-70" value="&lt;b&gt;&lt;u&gt;Mã dịch vụ&lt;/u&gt;&lt;/b&gt;" style="ellipse;whiteSpace=wrap;html=1;" vertex="1" parent="1">
          <mxGeometry x="840" y="725" width="90" height="30" as="geometry" />
        </mxCell>
        <mxCell id="VVJBVP3TvkQfD2h86G9u-71" value="" style="endArrow=none;html=1;rounded=0;strokeColor=default;fontSize=24;elbow=vertical;exitX=0;exitY=1;exitDx=0;exitDy=0;entryX=1;entryY=0.5;entryDx=0;entryDy=0;" edge="1" parent="1" source="VVJBVP3TvkQfD2h86G9u-70" target="VVJBVP3TvkQfD2h86G9u-17">
          <mxGeometry relative="1" as="geometry">
            <mxPoint x="940" y="870" as="sourcePoint" />
            <mxPoint x="910" y="840" as="targetPoint" />
            <Array as="points" />
          </mxGeometry>
        </mxCell>
        <mxCell id="VVJBVP3TvkQfD2h86G9u-72" value="Tên dịch vụ" style="ellipse;whiteSpace=wrap;html=1;" vertex="1" parent="1">
          <mxGeometry x="840" y="780" width="90" height="40" as="geometry" />
        </mxCell>
        <mxCell id="VVJBVP3TvkQfD2h86G9u-73" value="Thời gian làm" style="ellipse;whiteSpace=wrap;html=1;" vertex="1" parent="1">
          <mxGeometry x="840" y="840" width="90" height="40" as="geometry" />
        </mxCell>
        <mxCell id="VVJBVP3TvkQfD2h86G9u-75" value="" style="endArrow=none;html=1;rounded=0;strokeColor=default;fontSize=24;elbow=vertical;exitX=0;exitY=0.5;exitDx=0;exitDy=0;entryX=1;entryY=0.5;entryDx=0;entryDy=0;" edge="1" parent="1" source="VVJBVP3TvkQfD2h86G9u-72" target="VVJBVP3TvkQfD2h86G9u-17">
          <mxGeometry relative="1" as="geometry">
            <mxPoint x="853.1801948466054" y="760.606601717798" as="sourcePoint" />
            <mxPoint x="760" y="840" as="targetPoint" />
            <Array as="points" />
          </mxGeometry>
        </mxCell>
        <mxCell id="VVJBVP3TvkQfD2h86G9u-76" value="" style="endArrow=none;html=1;rounded=0;strokeColor=default;fontSize=24;elbow=vertical;exitX=0;exitY=0.5;exitDx=0;exitDy=0;entryX=1;entryY=0.5;entryDx=0;entryDy=0;" edge="1" parent="1" source="VVJBVP3TvkQfD2h86G9u-73" target="VVJBVP3TvkQfD2h86G9u-17">
          <mxGeometry relative="1" as="geometry">
            <mxPoint x="850" y="810" as="sourcePoint" />
            <mxPoint x="760" y="840" as="targetPoint" />
            <Array as="points" />
          </mxGeometry>
        </mxCell>
        <mxCell id="VVJBVP3TvkQfD2h86G9u-77" value="" style="endArrow=none;html=1;rounded=0;strokeColor=default;fontSize=24;elbow=vertical;entryX=1;entryY=0.5;entryDx=0;entryDy=0;exitX=0;exitY=0.5;exitDx=0;exitDy=0;" edge="1" parent="1" source="VVJBVP3TvkQfD2h86G9u-79" target="VVJBVP3TvkQfD2h86G9u-17">
          <mxGeometry relative="1" as="geometry">
            <mxPoint x="810" y="970" as="sourcePoint" />
            <mxPoint x="770" y="850" as="targetPoint" />
            <Array as="points" />
          </mxGeometry>
        </mxCell>
        <mxCell id="VVJBVP3TvkQfD2h86G9u-79" value="Lương" style="ellipse;whiteSpace=wrap;html=1;" vertex="1" parent="1">
          <mxGeometry x="840" y="900" width="90" height="40" as="geometry" />
        </mxCell>
        <mxCell id="VVJBVP3TvkQfD2h86G9u-80" value="&lt;b&gt;&lt;u&gt;Mã nhân viên&lt;/u&gt;&lt;/b&gt;" style="ellipse;whiteSpace=wrap;html=1;" vertex="1" parent="1">
          <mxGeometry x="135" y="1100" width="90" height="40" as="geometry" />
        </mxCell>
        <mxCell id="VVJBVP3TvkQfD2h86G9u-81" value="Tên" style="ellipse;whiteSpace=wrap;html=1;" vertex="1" parent="1">
          <mxGeometry x="260" y="1110" width="90" height="40" as="geometry" />
        </mxCell>
        <mxCell id="VVJBVP3TvkQfD2h86G9u-82" value="Ngày sinh" style="ellipse;whiteSpace=wrap;html=1;" vertex="1" parent="1">
          <mxGeometry x="390" y="1110" width="90" height="40" as="geometry" />
        </mxCell>
        <mxCell id="VVJBVP3TvkQfD2h86G9u-83" value="" style="endArrow=none;html=1;rounded=0;strokeColor=default;fontSize=24;elbow=vertical;exitX=1;exitY=0;exitDx=0;exitDy=0;entryX=0.5;entryY=1;entryDx=0;entryDy=0;" edge="1" parent="1" source="VVJBVP3TvkQfD2h86G9u-80" target="VVJBVP3TvkQfD2h86G9u-15">
          <mxGeometry relative="1" as="geometry">
            <mxPoint x="427.5" y="1200" as="sourcePoint" />
            <mxPoint x="402.5" y="1235" as="targetPoint" />
            <Array as="points" />
          </mxGeometry>
        </mxCell>
        <mxCell id="VVJBVP3TvkQfD2h86G9u-84" value="Địa chỉ" style="ellipse;whiteSpace=wrap;html=1;" vertex="1" parent="1">
          <mxGeometry x="510" y="1110" width="90" height="40" as="geometry" />
        </mxCell>
        <mxCell id="VVJBVP3TvkQfD2h86G9u-86" value="" style="endArrow=none;html=1;rounded=0;strokeColor=default;fontSize=24;elbow=vertical;exitX=0.5;exitY=1;exitDx=0;exitDy=0;entryX=0.5;entryY=0;entryDx=0;entryDy=0;" edge="1" parent="1" source="VVJBVP3TvkQfD2h86G9u-15" target="VVJBVP3TvkQfD2h86G9u-81">
          <mxGeometry relative="1" as="geometry">
            <mxPoint x="231.81980515339455" y="1115.8578643762692" as="sourcePoint" />
            <mxPoint x="417.5" y="1060" as="targetPoint" />
            <Array as="points" />
          </mxGeometry>
        </mxCell>
        <mxCell id="VVJBVP3TvkQfD2h86G9u-88" value="" style="endArrow=none;html=1;rounded=0;strokeColor=default;fontSize=24;elbow=vertical;exitX=0.5;exitY=0;exitDx=0;exitDy=0;entryX=0.5;entryY=1;entryDx=0;entryDy=0;" edge="1" parent="1" source="VVJBVP3TvkQfD2h86G9u-84" target="VVJBVP3TvkQfD2h86G9u-15">
          <mxGeometry relative="1" as="geometry">
            <mxPoint x="251.81980515339455" y="1135.8578643762692" as="sourcePoint" />
            <mxPoint x="437.5" y="1080" as="targetPoint" />
            <Array as="points" />
          </mxGeometry>
        </mxCell>
        <mxCell id="VVJBVP3TvkQfD2h86G9u-89" value="" style="endArrow=none;html=1;rounded=0;strokeColor=default;fontSize=24;elbow=vertical;exitX=0.5;exitY=0;exitDx=0;exitDy=0;entryX=0.5;entryY=1;entryDx=0;entryDy=0;" edge="1" parent="1" source="VVJBVP3TvkQfD2h86G9u-82" target="VVJBVP3TvkQfD2h86G9u-15">
          <mxGeometry relative="1" as="geometry">
            <mxPoint x="595" y="1120" as="sourcePoint" />
            <mxPoint x="417.5" y="1060" as="targetPoint" />
            <Array as="points" />
          </mxGeometry>
        </mxCell>
        <mxCell id="VVJBVP3TvkQfD2h86G9u-90" value="SĐT" style="ellipse;whiteSpace=wrap;html=1;" vertex="1" parent="1">
          <mxGeometry x="600" y="1070" width="90" height="40" as="geometry" />
        </mxCell>
        <mxCell id="VVJBVP3TvkQfD2h86G9u-91" value="" style="endArrow=none;html=1;rounded=0;strokeColor=default;fontSize=24;elbow=vertical;exitX=0;exitY=0.5;exitDx=0;exitDy=0;entryX=0.5;entryY=1;entryDx=0;entryDy=0;" edge="1" parent="1" source="VVJBVP3TvkQfD2h86G9u-90" target="VVJBVP3TvkQfD2h86G9u-15">
          <mxGeometry relative="1" as="geometry">
            <mxPoint x="565" y="1120" as="sourcePoint" />
            <mxPoint x="417.5" y="1060" as="targetPoint" />
            <Array as="points" />
          </mxGeometry>
        </mxCell>
      </root>
    </mxGraphModel>
  </diagram>
</mxfile>
